Coordinates
version=1
nRows=42
nColumns=38
inDegrees=no

Units are S.I. units (second, meters, Newtons, ...)
If the header above contains a line with 'inDegrees', this indicates whether rotational values are in degrees (yes) or radians (no).

endheader
time	pelvis_tilt	pelvis_list	pelvis_rotation	pelvis_tx	pelvis_ty	pelvis_tz	hip_flexion_r	hip_adduction_r	hip_rotation_r	knee_angle_r	ankle_angle_r	subtalar_angle_r	mtp_angle_r	hip_flexion_l	hip_adduction_l	hip_rotation_l	knee_angle_l	ankle_angle_l	subtalar_angle_l	mtp_angle_l	lumbar_extension	lumbar_bending	lumbar_rotation	arm_flex_r	arm_add_r	arm_rot_r	elbow_flex_r	pro_sup_r	wrist_flex_r	wrist_dev_r	arm_flex_l	arm_add_l	arm_rot_l	elbow_flex_l	pro_sup_l	wrist_flex_l	wrist_dev_l
6.16	0.114337	1.369	-1.70468	0.67854	0.559687	0.961561	-0.406955	-0.0255287	-0.199978	0	0.0393695	0	0	-0.186545	0.00691541	-0.333486	0.198078	0.0597627	0	0	-0.667823	-0.0394065	0.0445087	1.32589	-0.611245	1.49932	0.943126	0.437286	0	0	1.06593	-0.555508	0.931163	1.14096	0.761229	0	0
6.17	0.11738	1.37258	-1.70709	0.678992	0.559691	0.961359	-0.40319	-0.0259596	-0.200657	0	0.0386968	0	0	-0.182756	0.00741731	-0.333154	0.197827	0.0606985	0	0	-0.66997	-0.0388341	0.0443504	1.3422	-0.604909	1.51165	0.927076	0.430143	0	0	1.08265	-0.548821	0.938907	1.12962	0.754209	0	0
6.18	0.12072	1.37616	-1.70951	0.679471	0.559662	0.961164	-0.399553	-0.0263673	-0.201433	0	0.0381097	0	0	-0.178871	0.00796498	-0.332315	0.197665	0.061047	0	0	-0.672012	-0.0380284	0.0440678	1.35825	-0.598314	1.52456	0.910592	0.42298	0	0	1.09883	-0.541245	0.945478	1.11699	0.74842	0	0
6.19	0.124965	1.38004	-1.71259	0.67998	0.559574	0.960957	-0.395741	-0.0268262	-0.20203	0	0.0375441	0	0	-0.174558	0.00856638	-0.331604	0.19764	0.0612228	0	0	-0.673713	-0.0371541	0.0435637	1.37427	-0.591467	1.53846	0.893992	0.41598	0	0	1.11495	-0.533505	0.952604	1.10372	0.743401	0	0
6.2	0.130117	1.38417	-1.7164	0.680487	0.559415	0.960722	-0.391821	-0.0273212	-0.202599	0	0.0366325	0	0	-0.16984	0.00912314	-0.330993	0.197966	0.0614612	0	0	-0.675011	-0.0362883	0.0429365	1.38994	-0.584296	1.55262	0.877833	0.409368	0	0	1.13034	-0.52579	0.95877	1.09061	0.739123	0	0
6.21	0.135946	1.3885	-1.72077	0.680961	0.559189	0.96048	-0.387788	-0.0278098	-0.203701	0	0.0362298	0	0	-0.164834	0.00966453	-0.330174	0.198447	0.0613395	0	0	-0.675848	-0.0355174	0.0423504	1.40494	-0.576946	1.56657	0.861229	0.40461	0	0	1.14515	-0.517572	0.96387	1.07672	0.735669	0	0
6.22	0.142421	1.39293	-1.72578	0.68149	0.559239	0.959988	-0.38366	-0.0283218	-0.204494	0	0.0363556	0	0	-0.159747	0.0104023	-0.329146	0.198733	0.0603691	0	0	-0.676992	-0.0347294	0.041765	1.41782	-0.569615	1.5708	0.844475	0.401365	0	0	1.16013	-0.509414	0.968917	1.06258	0.732372	0	0
6.23	0.149808	1.39762	-1.73177	0.681967	0.558744	0.960102	-0.378954	-0.0290315	-0.205192	0	0.0358243	0	0	-0.154257	0.0113711	-0.327963	0.198893	0.0591758	0	0	-0.677747	-0.0341607	0.0411579	1.4293	-0.562404	1.5708	0.827992	0.398674	0	0	1.17561	-0.501201	0.974666	1.04877	0.728998	0	0
6.24	0.159577	1.40282	-1.74021	0.682455	0.558479	0.959756	-0.373834	-0.0300033	-0.20608	0	0.0351449	0	0	-0.148419	0.0124729	-0.326818	0.199213	0.0585212	0	0	-0.677788	-0.0340313	0.0404947	1.44007	-0.55527	1.5708	0.811723	0.395869	0	0	1.19139	-0.492484	0.981232	1.03428	0.726149	0	0
6.25	0.170021	1.40792	-1.74954	0.682878	0.558123	0.959478	-0.368819	-0.0310147	-0.206629	0	0.034867	0	0	-0.142732	0.0135858	-0.325535	0.199618	0.0579929	0	0	-0.677715	-0.0340695	0.0402088	1.45039	-0.548325	1.5708	0.795506	0.392905	0	0	1.20709	-0.483357	0.987832	1.01859	0.723565	0	0
6.26	0.180971	1.41253	-1.75951	0.683255	0.55773	0.959222	-0.364309	-0.0320763	-0.207158	0	0.0347936	0	0	-0.137492	0.0147609	-0.324435	0.20015	0.0571489	0	0	-0.678061	-0.0341672	0.0403053	1.4605	-0.541683	1.5708	0.779451	0.389904	0	0	1.22289	-0.474412	0.995518	1.00261	0.720204	0	0
6.27	0.191521	1.41699	-1.76899	0.683655	0.557269	0.958947	-0.360176	-0.0329844	-0.207549	0	0.0349854	0	0	-0.132556	0.0158831	-0.323116	0.20034	0.0562018	0	0	-0.678444	-0.034023	0.0406953	1.4702	-0.535705	1.5708	0.764334	0.387149	0	0	1.23879	-0.46516	1.00468	0.986431	0.716283	0	0
6.28	0.201247	1.42112	-1.77744	0.684133	0.556769	0.958675	-0.356472	-0.0337897	-0.208283	0	0.0345996	0	0	-0.128059	0.0169545	-0.321406	0.200456	0.0557071	0	0	-0.679032	-0.0334134	0.0411298	1.47968	-0.529764	1.5708	0.749491	0.383784	0	0	1.25444	-0.455674	1.01451	0.969487	0.712823	0	0
6.29	0.210357	1.42512	-1.78539	0.684533	0.556199	0.95841	-0.352992	-0.0343914	-0.209272	0	0.0343519	0	0	-0.123718	0.0177224	-0.319618	0.201045	0.0562294	0	0	-0.679571	-0.032808	0.0419969	1.4886	-0.523753	1.57074	0.734222	0.38111	0	0	1.26903	-0.445147	1.022	0.951233	0.710036	0	0
6.3	0.220954	1.42965	-1.79496	0.684828	0.555507	0.958122	-0.348913	-0.034951	-0.210189	0	0.0342505	0	0	-0.118876	0.018271	-0.318183	0.201831	0.056984	0	0	-0.679247	-0.0326386	0.0431548	1.49639	-0.518724	1.57066	0.720023	0.379579	0	0	1.28289	-0.434123	1.02863	0.932298	0.707814	0	0
6.31	0.233319	1.43431	-1.80638	0.685122	0.554718	0.957807	-0.34472	-0.0356956	-0.210667	0	0.0343082	0	0	-0.114096	0.0190554	-0.316737	0.202243	0.0572817	0	0	-0.678668	-0.0326355	0.0441301	1.50364	-0.514349	1.5706	0.707445	0.378732	0	0	1.29621	-0.423388	1.03513	0.913411	0.706451	0	0
6.32	0.246839	1.43843	-1.81894	0.685426	0.553884	0.957483	-0.341164	-0.0366333	-0.210819	0	0.0345	0	0	-0.110038	0.0201265	-0.31537	0.202374	0.0574148	0	0	-0.678601	-0.0326293	0.0448998	1.51059	-0.50987	1.57055	0.694891	0.378265	0	0	1.30856	-0.412688	1.0396	0.895362	0.705969	0	0
6.33	0.259506	1.44205	-1.8306	0.685743	0.553021	0.95716	-0.338219	-0.0374965	-0.211068	0	0.0348176	0	0	-0.10679	0.021154	-0.314063	0.202202	0.0577123	0	0	-0.679089	-0.0323557	0.0454563	1.51729	-0.505265	1.57052	0.682612	0.378083	0	0	1.3202	-0.402789	1.04339	0.878431	0.706476	0	0
6.34	0.269818	1.44532	-1.83994	0.686055	0.552113	0.956856	-0.335799	-0.0380539	-0.211176	0	0.0350555	0	0	-0.104191	0.0219087	-0.312805	0.201791	0.0583088	0	0	-0.679906	-0.0317968	0.0461097	1.5236	-0.500951	1.57049	0.671192	0.378428	0	0	1.33067	-0.393321	1.04571	0.862194	0.708237	0	0
6.35	0.279686	1.44852	-1.84898	0.686301	0.551101	0.956586	-0.333615	-0.0384289	-0.21121	0	0.0353324	0	0	-0.101985	0.0225864	-0.311656	0.201026	0.0588671	0	0	-0.680706	-0.0314418	0.046926	1.52913	-0.497371	1.57049	0.660372	0.380718	0	0	1.34009	-0.384154	1.04691	0.846518	0.71095	0	0
6.36	0.29303	1.45212	-1.86175	0.686495	0.549997	0.956264	-0.330795	-0.0390846	-0.211438	0	0.0360778	0	0	-0.0993371	0.0234644	-0.310705	0.200308	0.0592592	0	0	-0.680923	-0.0316315	0.0476645	1.53383	-0.494312	1.5705	0.650446	0.384701	0	0	1.3487	-0.375559	1.048	0.831702	0.714887	0	0
6.37	0.307952	1.45539	-1.87629	0.686691	0.548885	0.955913	-0.328083	-0.0400694	-0.211592	0	0.0371848	0	0	-0.0968639	0.0245574	-0.310008	0.199833	0.0597942	0	0	-0.681625	-0.0319743	0.0481392	1.53852	-0.491668	1.57051	0.642574	0.390141	0	0	1.35649	-0.367696	1.04743	0.81909	0.71971	0	0
6.38	0.320334	1.45809	-1.88835	0.686914	0.547784	0.955592	-0.326052	-0.0409142	-0.21141	0	0.0381114	0	0	-0.0948968	0.0253957	-0.309692	0.199692	0.0606062	0	0	-0.683138	-0.031934	0.0484963	1.5433	-0.489337	1.57051	0.636437	0.398114	0	0	1.36314	-0.361435	1.04484	0.809152	0.726503	0	0
6.39	0.329896	1.46059	-1.89793	0.687072	0.54664	0.955323	-0.324437	-0.0414525	-0.210506	0	0.0387667	0	0	-0.093115	0.0258076	-0.309726	0.200018	0.0617224	0	0	-0.684997	-0.0318859	0.0490392	1.54756	-0.487043	1.57054	0.630076	0.410585	0	0	1.36873	-0.356082	1.04135	0.800384	0.736696	0	0
6.4	0.342728	1.46333	-1.91064	0.687213	0.545404	0.955042	-0.322552	-0.0420868	-0.210006	0	0.0394152	0	0	-0.0910019	0.0263564	-0.309307	0.200435	0.0626494	0	0	-0.686553	-0.032144	0.0492686	1.55097	-0.485359	1.57059	0.624097	0.429997	0	0	1.37297	-0.351217	1.0357	0.793781	0.750625	0	0
6.41	0.356364	1.46568	-1.92437	0.687334	0.54416	0.954765	-0.320956	-0.0429378	-0.209605	0	0.0405101	0	0	-0.0893137	0.0271018	-0.308703	0.200829	0.0635242	0	0	-0.688634	-0.0326526	0.0491905	1.55413	-0.483417	1.57066	0.617649	0.458404	0	0	1.37601	-0.347195	1.02791	0.78929	0.769004	0	0
6.42	0.372662	1.46849	-1.94077	0.687416	0.54285	0.95445	-0.318891	-0.0437556	-0.209185	0	0.0416263	0	0	-0.0868371	0.027697	-0.308117	0.201899	0.0645708	0	0	-0.690255	-0.0334825	0.049106	1.55641	-0.482023	1.57075	0.610988	0.499658	0	0	1.37749	-0.343832	1.01914	0.786269	0.793634	0	0
6.43	0.391993	1.47184	-1.9602	0.687475	0.541471	0.95408	-0.316301	-0.044499	-0.208553	0	0.0427787	0	0	-0.08347	0.0281656	-0.307494	0.203673	0.0659552	0	0	-0.691314	-0.0344386	0.0488255	1.55771	-0.48039	1.5708	0.603262	0.559056	0	0	1.37685	-0.341589	1.00863	0.785679	0.826577	0	0
6.44	0.405227	1.47503	-1.97385	0.687562	0.540169	0.953695	-0.313991	-0.0447509	-0.207438	0	0.0440215	0	0	-0.0797374	0.0278045	-0.307978	0.207178	0.0687471	0	0	-0.692954	-0.0343055	0.0475673	1.55914	-0.474881	1.5708	0.59082	0.64523	0	0	1.37332	-0.342177	0.992733	0.789244	0.870678	0	0
6.45	0.444243	1.48604	-2.01362	0.687887	0.538865	0.952595	-0.303093	-0.0430844	-0.206513	0	0.0465444	0	0	-0.0624604	0.0229884	-0.317756	0.222897	0.0802352	0	0	-0.685755	-0.033936	0.0454615	1.5543	-0.465068	1.56792	0.571938	0.770824	0	0	1.36068	-0.346781	0.9582	0.805217	0.929662	0	0
6.46	0.423431	1.47845	-1.99293	0.687742	0.537701	0.95316	-0.312566	-0.0455914	-0.205443	0	0.0459317	0	0	-0.0768213	0.0282005	-0.305733	0.210803	0.0721612	0	0	-0.701603	-0.0349689	0.0458924	1.56346	-0.473178	1.5708	0.591239	0.645625	0	0	1.37129	-0.345572	0.988302	0.800755	0.874186	0	0
6.47	0.424885	1.47847	-1.99497	0.687813	0.536524	0.952968	-0.313775	-0.0460949	-0.204799	0	0.0469287	0	0	-0.0779722	0.0288066	-0.303754	0.211056	0.073188	0	0	-0.708712	-0.0356497	0.0455212	1.56604	-0.476357	1.5708	0.603198	0.560217	0	0	1.37217	-0.348406	0.997664	0.80895	0.835835	0	0
6.48	0.424925	1.47938	-1.99563	0.687934	0.535444	0.952429	-0.31434	-0.0460757	-0.204006	0	0.0482249	0	0	-0.0777329	0.028554	-0.303038	0.212997	0.0757789	0	0	-0.714991	-0.0358106	0.0449112	1.56705	-0.478139	1.5708	0.612715	0.502899	0	0	1.36957	-0.351002	0.999488	0.818011	0.812622	0	0
6.49	0.421781	1.48008	-1.99273	0.688102	0.534168	0.952081	-0.315555	-0.0458245	-0.202531	0	0.0497543	0	0	-0.0776231	0.0280948	-0.30217	0.215374	0.0790079	0	0	-0.721566	-0.0354753	0.0440416	1.5674	-0.479398	1.5708	0.620386	0.464467	0	0	1.36409	-0.352728	0.995765	0.826861	0.802326	0	0
6.5	0.417907	1.48078	-1.98966	0.688126	0.532746	0.951945	-0.316505	-0.0456765	-0.200877	0	0.0518854	0	0	-0.0770267	0.027655	-0.301466	0.218386	0.0826433	0	0	-0.728664	-0.0352965	0.0434367	1.5677	-0.480081	1.5708	0.626787	0.438574	0	0	1.35704	-0.353886	0.989188	0.834473	0.802461	0	0
6.51	0.4169	1.48115	-1.98949	0.688375	0.531846	0.951232	-0.317901	-0.0458266	-0.199194	0	0.0537886	0	0	-0.0764649	0.0274498	-0.301091	0.222048	0.0864598	0	0	-0.736476	-0.0352069	0.0422454	1.56754	-0.480184	1.5708	0.632098	0.421961	0	0	1.34817	-0.354695	0.982347	0.840043	0.810748	0	0
6.52	0.415829	1.48089	-1.98921	0.688489	0.530459	0.951146	-0.319544	-0.0464289	-0.197598	0	0.0562702	0	0	-0.0759963	0.0275263	-0.300862	0.226129	0.0902355	0	0	-0.745112	-0.0352389	0.0404413	1.56703	-0.479971	1.5708	0.636708	0.413718	0	0	1.33756	-0.355151	0.97384	0.844547	0.823144	0	0
6.53	0.414302	1.48023	-1.98893	0.68859	0.529409	0.950727	-0.321381	-0.0472636	-0.196213	0	0.0590595	0	0	-0.0758723	0.0277733	-0.300141	0.230338	0.0938762	0	0	-0.754963	-0.0355273	0.0383677	1.56673	-0.47988	1.5708	0.642649	0.410985	0	0	1.32583	-0.356003	0.955579	0.853242	0.832473	0	0
6.54	0.409323	1.47889	-1.98447	0.688764	0.528333	0.950285	-0.324433	-0.0477855	-0.195326	0	0.0616366	0	0	-0.076367	0.0277425	-0.299057	0.235192	0.0979295	0	0	-0.765557	-0.0353602	0.035216	1.56702	-0.480496	1.5708	0.652507	0.406253	0	0	1.31307	-0.358215	0.91982	0.870545	0.837034	0	0
6.55	0.40157	1.47702	-1.97708	0.688909	0.527188	0.949906	-0.328226	-0.0481243	-0.194639	0	0.0643609	0	0	-0.0773763	0.0274662	-0.29793	0.240433	0.102233	0	0	-0.776469	-0.035097	0.0313202	1.56903	-0.481359	1.5708	0.665718	0.398682	0	0	1.30009	-0.361375	0.869318	0.895833	0.845903	0	0
6.56	0.392288	1.47447	-1.96729	0.689141	0.52591	0.94951	-0.333401	-0.0482341	-0.193488	0	0.0664958	0	0	-0.0790784	0.0269116	-0.297095	0.246372	0.106698	0	0	-0.787317	-0.0347541	0.0260749	1.5708	-0.481909	1.5708	0.679031	0.392518	0	0	1.28615	-0.365837	0.814231	0.928981	0.866348	0	0
6.57	0.383725	1.47223	-1.95809	0.689391	0.524673	0.949013	-0.338012	-0.0483864	-0.192482	0	0.0687993	0	0	-0.080003	0.026363	-0.295864	0.252784	0.111053	0	0	-0.79852	-0.0342813	0.0200506	1.5708	-0.48279	1.55173	0.694044	0.390024	0	0	1.27324	-0.371213	0.762817	0.965261	0.896902	0	0
